# xmcd
#
# Track frame offsets: 
#        150
#        11022
#        24749
#        37666
#        48734
#        61408
#        75295
#        86913
#        96047
#        110315
#        123658
#        131729
#        144266
#        155456
#        168641
#
# Disc length: 2422 seconds
#
# Revision: 0
# Processed by: cddbd v1.5.2PL0 Copyright (c) Steve Scherf et al.
# Submitted via: ExactAudioCopy v0.95b4
#
DISCID=c009740f
DTITLE=Various Artist - UnbekanKent Modern - For Dancers Only
DYEAR=2007
DGENRE=Soul
TTITLE0=Mary Love - You Turned My Bitter Into Sweet
TTITLE1=Felice Taylor - I Can Feel Your Love
TTITLE2=Danny Monday - Baby, Without You
TTITLE3=Willie Hutch - Your Love Has Made Me A Man
TTITLE4=The Ikettes - I'm So Thankful
TTITLE5=The Marvellos - In The Sunshine
TTITLE6=Jackie Day - Before It's Too Late
TTITLE7=Ike and Tina Turner - I Can't Believe What You Say
TTITLE8=Z.Z. Hill - Gimme Gimme
TTITLE9=Lowell Fulsom - My Aching Back
TTITLE10=Tami Young - Come Back Baby
TTITLE11=The Saints - I've Been Taken For A Ride
TTITLE12=The Intentions - Dancing Fast, Dancing Slow
TTITLE13=Z.Z. Hill - Baby I'm Sorry
TTITLE14=Mary Love - Let Me Know
EXTD=
EXTT0=
EXTT1=
EXTT2=
EXTT3=
EXTT4=
EXTT5=
EXTT6=
EXTT7=
EXTT8=
EXTT9=
EXTT10=
EXTT11=
EXTT12=
EXTT13=
EXTT14=
PLAYORDER=
